<?xml version="1.0" encoding="UTF-8"?>
<svg id="Ebene_1" xmlns="http://www.w3.org/2000/svg" version="1.1" viewBox="0 0 68.74 68.74">
  <!-- Generator: Adobe Illustrator 29.5.1, SVG Export Plug-In . SVG Version: 2.1.0 Build 141)  -->
  <defs>
    <style>
      .st0 {
        fill: #036;
      }

      .st1 {
        fill: #293133;
      }

      .st2 {
        fill: #fff;
      }
    </style>
  </defs>
  <circle class="st2" cx="34.37" cy="34.37" r="34.37"/>
  <g>
    <path class="st1" d="M42.67,27.51c1.34-1.04,3.87-1.79,5.11-1.79-1.19,2.13-2.68,5.51-4.07,9.08-1.49,3.87-2.68,7.1-3.22,9.88-.1.6.25.74,1.04.99.74.25,1.88.4,3.12.4,8.97,0,14.58-6.85,14.58-13.95,0-2.38-1.04-4.12-2.63-5.36-2.88-2.18-7.59-2.83-11.7-2.78-1.93,0-5.25.15-6.74.3.2-.55,2.53-2.43,3.92-3.03,1.34-.15,3.12-.25,4.96-.25,10.56,0,16.66,3.38,16.66,9.63,0,8.64-10.21,17.82-24.49,17.82-1.29,0-3.32-.1-4.07-.35.69-3.82,4.66-14.74,7.54-20.6Z"/>
    <path class="st0" d="M28.7,46.49c-.69.84-3.22,2.18-4.16,2.18-3.37-9.18-6.84-13.9-10.01-21.4-.69,1.44-1.44,3.03-2.38,5.46-2.03,5.26-3.07,8.74-3.82,14-1.29.99-3.32,1.64-4.41,1.64,2.03-6.45,5.4-13.25,7.49-19.06.74-2.04,1.19-4.32,1.29-6.11,1.54-1.14,3.07-2.08,4.56-2.43,2.83,9.48,6.45,14.5,9.87,21.84,2.08-5.66,3.72-10.13,7.14-20.01,1.14-.94,3.32-1.69,4.86-1.69-2.93,4.62-5.16,9.48-7.34,15.19-2.13,5.51-3.02,8.94-3.07,10.37Z"/>
  </g>
</svg>